<svg width="26" height="27" viewBox="0 0 26 27" fill="none" xmlns="http://www.w3.org/2000/svg">
<path d="M4 8H23L21.5 15.5L14.5 18.5L5 16L4 8Z" fill="white"/>
<path fill-rule="evenodd" clip-rule="evenodd" d="M12.9858 5.02677C11.1927 3.17177 9.32206 2.25186 7.52546 2.11416C5.49303 1.95839 3.70005 2.81612 2.40709 4.17004C-0.134533 6.83147 -0.910026 11.6429 2.26366 14.9538C2.27267 14.9632 2.28186 14.9724 2.29122 14.9814L12.3541 24.6475C12.71 24.9895 13.2592 24.9895 13.6151 24.6475L23.678 14.9814L23.6996 14.96C26.92 11.6611 26.1411 6.84955 23.5891 4.1882C22.2915 2.83504 20.4926 1.97702 18.4563 2.1287C16.6556 2.26285 14.7805 3.17719 12.9858 5.02677ZM12.3527 8.84792C12.1756 8.42111 11.7779 8.13809 11.3307 8.12054C10.8834 8.10299 10.4663 8.35403 10.2586 8.76575L8.66932 11.9166H6.52788C5.88685 11.9166 5.36717 12.4562 5.36717 13.1219C5.36717 13.7876 5.88685 14.3273 6.52788 14.3273H9.37163C9.80342 14.3273 10.1995 14.0784 10.3998 13.6812L11.1849 12.1247L13.1227 16.7932C13.2834 17.1805 13.6274 17.4524 14.0297 17.5101C14.432 17.5679 14.8341 17.403 15.09 17.0755L17.2371 14.3273H19.4699C20.1108 14.3273 20.6306 13.7876 20.6306 13.1219C20.6306 12.4562 20.1108 11.9166 19.4699 11.9166H16.6841C16.3343 11.9166 16.0032 12.0804 15.7828 12.3625L14.4955 14.0102L12.3527 8.84792Z" fill="#FD1919"/>
</svg>
